<?xml version="1.0" encoding="iso-8859-1"?>
<!-- Generator: Adobe Illustrator 19.0.0, SVG Export Plug-In . SVG Version: 6.00 Build 0)  -->
<svg version="1.1" id="Capa_1" xmlns="http://www.w3.org/2000/svg" xmlns:xlink="http://www.w3.org/1999/xlink" x="0px" y="0px"
	 viewBox="0 0 424.952 424.952" style="enable-background:new 0 0 424.952 424.952;" xml:space="preserve">
<g>
	<g>
		<path d="M353.472,235.477v0.16h-114.64l52.32-52.24c31.281-31.392,31.192-82.199-0.2-113.48
			c-31.392-31.281-82.199-31.192-113.48,0.2l-152.96,152.64c-31.827,30.645-32.785,81.289-2.14,113.117
			c22.732,23.608,57.564,30.964,87.9,18.563c13.607,15.213,33.03,23.936,53.44,24h189.76c39.477,0,71.48-32.003,71.48-71.48
			C424.952,267.48,392.949,235.477,353.472,235.477z M188.832,81.077c25.118-25.118,65.842-25.118,90.96,0s25.118,65.842,0,90.96
			l-70.8,70.88l-91.04-91.04L188.832,81.077z M35.872,324.997c-25.073-25.137-25.073-65.823,0-90.96l70.8-70.8l91.04,90.88
			l-70.8,70.8C101.788,350.065,61.04,350.101,35.872,324.997z M250.592,362.597h-86.88c-14.402-0.099-28.211-5.744-38.56-15.76h0.08
			c4.673-3.033,9.017-6.545,12.96-10.48l84.64-84.72h27.76V362.597z M353.472,362.597l0.08,0.24h-86.96v-111.2h86.88
			c30.641,0,55.48,24.839,55.48,55.48C408.952,337.758,384.112,362.597,353.472,362.597z"/>
	</g>
</g>
<g>
</g>
<g>
</g>
<g>
</g>
<g>
</g>
<g>
</g>
<g>
</g>
<g>
</g>
<g>
</g>
<g>
</g>
<g>
</g>
<g>
</g>
<g>
</g>
<g>
</g>
<g>
</g>
<g>
</g>
</svg>
