<svg id="_x31_" height="512" viewBox="0 0 24 24" width="512" xmlns="http://www.w3.org/2000/svg"><path d="m19.5 24h-15c-1.379 0-2.5-1.122-2.5-2.5v-12.333c0-.537.178-1.07.5-1.5l2.6-3.467c.094-.126.243-.2.4-.2h12.995.005c.102 0 .203.03.291.093.007.005.015.011.021.016.036.029.068.063.095.1l2.593 3.458c.322.43.5.962.5 1.5v12.333c0 1.378-1.121 2.5-2.5 2.5zm-4.001-1h4.001c.827 0 1.5-.673 1.5-1.5v-12.333c0-.322-.106-.642-.301-.899l-2.199-2.935-2.199 2.933c-.195.259-.301.578-.301.901v12.333c0 .563-.187 1.082-.501 1.5zm-9.749-18-2.449 3.267c-.195.258-.301.577-.301.9v12.333c0 .827.673 1.5 1.5 1.5h9c.827 0 1.5-.673 1.5-1.5v-12.333c0-.537.178-1.07.5-1.5l2-2.667z"/><path d="m18.5 5c-.276 0-.5-.224-.5-.5v-3c0-.276-.225-.5-.5-.5h-11c-.275 0-.5.224-.5.5v3c0 .276-.224.5-.5.5s-.5-.224-.5-.5v-3c0-.827.673-1.5 1.5-1.5h11c.827 0 1.5.673 1.5 1.5v3c0 .276-.224.5-.5.5z"/><path d="m10.5 14h-3c-.827 0-1.5-.673-1.5-1.5v-3.333c0-.537.178-1.07.5-1.5l2.6-3.467c.168-.221.481-.265.7-.1.221.166.266.479.101.7l-2.6 3.467c-.195.258-.301.577-.301.9v3.333c0 .276.225.5.5.5h3c.275 0 .5-.224.5-.5v-3.333c0-.537.178-1.07.5-1.5l2.6-3.467c.168-.221.481-.265.7-.1.221.166.266.479.101.7l-2.6 3.467c-.195.258-.301.577-.301.9v3.333c0 .827-.673 1.5-1.5 1.5z"/><path d="m18.5 11c-.276 0-.5-.224-.5-.5v-6c0-.276.224-.5.5-.5s.5.224.5.5v6c0 .276-.224.5-.5.5z"/></svg>